<?xml version="1.0" encoding="UTF-8"?>
<svg xmlns="http://www.w3.org/2000/svg" width="128" height="128" viewBox="0 0 1440 1440" role="img" aria-label="Calrunrilla">
  <defs>
    <linearGradient id="g" x1="0" y1="0" x2="1" y2="1">
      <stop offset="0" stop-color="#2dd4bf" />
      <stop offset="1" stop-color="#60a5fa" />
    </linearGradient>
  </defs>
  <rect x="90" y="90" width="1260" height="1260" rx="320" fill="#0b1220" />
  <rect x="90" y="90" width="1260" height="1260" rx="320" fill="none" stroke="url(#g)" stroke-width="48" />

  <!-- User-provided icon (shekel.svg), centered for a square favicon canvas -->
  <g transform="translate(0,1065) scale(1,-1)" fill="#e5e7eb" stroke="none">
    <path d="M887 645 c-92 -65 -238 -72 -348 -18 l-60 30 28 -29 c15 -16 57 -43 93 -61 60 -30 73 -32 170 -33 94 -1 110 2 154 25 50 26 119 97 110 112 -3 5 -26 9 -52 8 -36 -1 -58 -9 -95 -34z"/>
    <path d="M46 379 c-20 -16 -26 -29 -26 -58 0 -44 15 -60 83 -89 34 -15 47 -26 47 -41 0 -17 -6 -21 -36 -21 -19 0 -45 5 -56 11 -16 9 -24 7 -37 -6 -15 -15 -14 -18 8 -36 43 -35 126 -29 164 12 48 52 28 96 -60 135 -40 18 -54 29 -51 42 4 20 48 28 76 13 15 -8 23 -6 37 9 16 18 15 19 -14 34 -43 23 -103 20 -135 -5z"/>
    <path d="M250 260 l0 -140 30 0 30 0 0 61 0 60 38 -3 37 -3 3 -57 c3 -57 4 -58 32 -58 l30 0 0 140 0 140 -29 0 c-29 0 -30 -2 -33 -52 l-3 -53 -37 -3 -38 -3 0 55 c0 56 0 56 -30 56 l-30 0 0 -140z"/>
    <path d="M500 260 l0 -140 90 0 c89 0 90 0 90 25 0 24 -3 25 -60 25 l-60 0 0 35 0 35 50 0 c47 0 50 2 50 25 0 23 -3 25 -50 25 -49 0 -50 1 -50 30 l0 30 60 0 c57 0 60 1 60 25 0 25 -1 25 -90 25 l-90 0 0 -140z"/>
    <path d="M720 260 l0 -140 30 0 c28 0 30 2 30 38 0 26 7 45 20 57 11 10 21 16 23 14 2 -2 14 -28 27 -56 21 -49 26 -53 57 -53 18 0 33 2 33 4 0 2 -18 36 -40 76 -22 40 -40 78 -40 85 0 7 16 33 35 58 19 25 35 48 35 51 0 3 -13 6 -30 6 -24 0 -36 -9 -67 -55 -21 -30 -41 -54 -45 -55 -5 0 -8 25 -8 55 0 54 0 55 -30 55 l-30 0 0 -140z"/>
    <path d="M970 260 l0 -140 96 0 c93 0 95 1 92 23 -3 20 -9 22 -65 25 l-63 3 0 34 0 35 50 0 c47 0 50 2 50 25 0 23 -3 25 -50 25 -49 0 -50 1 -50 30 l0 30 60 0 c57 0 60 1 60 25 0 25 -1 25 -90 25 l-90 0 0 -140z"/>
    <path d="M1200 260 l0 -140 96 0 c93 0 95 1 92 23 -3 20 -9 22 -65 25 l-63 3 0 114 0 115 -30 0 -30 0 0 -140z"/>
  </g>
</svg>

